<?xml version="1.0" standalone="no"?>
<!DOCTYPE svg PUBLIC "-//W3C//DTD SVG 20010904//EN"
 "http://www.w3.org/TR/2001/REC-SVG-20010904/DTD/svg10.dtd">
<svg version="1.0" xmlns="http://www.w3.org/2000/svg"
 width="500.000000pt" height="500.000000pt" viewBox="0 0 500.000000 500.000000"
 preserveAspectRatio="xMidYMid meet">

<g transform="translate(0.000000,500.000000) scale(0.100000,-0.100000)"
fill="#000000" stroke="none">
<path d="M2326 4488 c-9 -13 -19 -40 -22 -60 -4 -21 -12 -41 -18 -46 -6 -5
-58 -21 -116 -37 -201 -54 -325 -112 -306 -143 10 -16 43 -15 53 2 4 7 22 20
38 28 38 20 238 84 289 94 l39 7 -6 -44 c-13 -85 -29 -596 -24 -732 5 -132 15
-173 39 -165 6 2 11 137 13 328 3 298 19 594 35 619 9 16 258 54 312 47 56 -6
69 6 33 30 -29 19 -104 15 -249 -12 -82 -16 -97 -14 -77 10 15 18 11 88 -6 93
-6 2 -18 -6 -27 -19z"/>
<path d="M2821 4283 c-33 -63 -64 -261 -77 -485 -11 -209 10 -231 80 -84 40
83 90 146 116 146 5 0 16 -7 24 -16 16 -16 23 -115 10 -148 -3 -9 -42 -35 -86
-58 -44 -24 -100 -62 -125 -84 -38 -36 -44 -47 -41 -75 7 -77 110 -74 192 5
23 23 57 71 74 107 28 60 37 70 100 107 38 22 74 48 82 56 22 28 28 17 23 -46
-4 -54 -2 -67 17 -90 27 -35 50 -35 88 -3 60 50 82 195 41 262 -17 27 -19 36
-9 48 15 18 6 45 -15 45 -16 0 -75 -75 -75 -96 0 -15 -114 -112 -170 -143
l-40 -22 0 56 c0 167 -118 177 -216 18 l-23 -38 -1 30 c0 54 31 298 51 397 10
53 19 103 19 112 0 21 -27 20 -39 -1z m492 -498 c-2 -52 -34 -135 -52 -135
-25 0 -12 112 20 184 18 40 34 15 32 -49z m-380 -197 c-10 -17 -39 -53 -64
-80 -36 -38 -52 -48 -77 -48 -67 0 -21 67 88 129 69 39 75 39 53 -1z"/>
<path d="M3522 4288 c-37 -46 -74 -293 -76 -508 -1 -144 0 -155 17 -155 13 0
27 20 48 70 34 78 68 127 106 152 25 16 26 16 44 -6 13 -15 19 -39 19 -70 0
-80 -6 -88 -90 -132 -133 -69 -197 -139 -171 -188 43 -80 205 6 266 140 23 51
35 66 83 96 32 19 69 44 84 54 35 25 36 25 40 -13 3 -29 7 -33 34 -36 28 -3
33 2 69 64 l39 67 17 -40 c24 -56 65 -86 108 -79 66 10 156 94 149 139 -3 20
-8 17 -54 -30 -101 -104 -159 -88 -173 47 -8 74 -30 78 -67 13 -56 -99 -68
-116 -72 -105 -8 25 32 115 68 153 l38 40 36 -17 c43 -21 55 -14 32 21 -40 61
-121 36 -171 -55 -37 -67 -105 -137 -168 -172 l-47 -27 0 52 c0 63 -27 118
-64 132 -41 14 -92 -19 -138 -89 l-38 -59 0 44 c0 63 27 272 50 392 11 56 20
105 20 110 0 12 -27 8 -38 -5z m107 -700 c-38 -72 -102 -128 -148 -128 -35 0
-33 19 6 60 34 36 142 104 151 95 2 -2 -2 -14 -9 -27z"/>
<path d="M940 4000 c-11 -11 -41 -56 -67 -102 -39 -66 -49 -78 -51 -59 -2 13
1 43 7 67 6 23 11 55 11 69 0 22 -4 26 -22 23 -29 -4 -57 -78 -59 -157 -2 -71
6 -98 32 -106 28 -9 50 13 90 88 18 34 44 80 57 102 l25 40 10 -30 c22 -69 49
-72 113 -13 l45 42 -6 -125 c-8 -144 3 -194 48 -219 25 -14 30 -13 64 5 20 11
56 43 79 72 38 46 44 50 56 36 7 -9 28 -22 46 -30 41 -17 88 -6 154 36 l47 30
3 -42 c3 -38 6 -42 32 -45 25 -3 39 6 93 63 l63 66 0 -64 c0 -64 -1 -65 -58
-133 -121 -145 -190 -279 -199 -385 -6 -66 -5 -69 25 -98 35 -36 64 -39 108
-12 70 43 123 145 153 298 12 55 21 131 21 166 0 36 4 77 9 90 9 24 138 134
146 125 3 -2 0 -20 -5 -39 -24 -82 2 -169 50 -169 83 0 144 197 89 287 -17 27
-19 36 -9 48 15 18 6 45 -15 45 -17 0 -75 -75 -75 -97 0 -7 -10 -17 -23 -22
-13 -5 -53 -32 -90 -60 -36 -28 -69 -51 -72 -51 -3 0 -5 25 -5 56 0 103 -31
121 -81 47 -76 -110 -137 -157 -119 -92 23 78 81 162 133 191 31 18 32 17 60
-10 l29 -27 -4 35 c-6 71 -90 63 -160 -16 -108 -123 -202 -194 -255 -194 -33
0 -63 29 -63 60 0 24 6 32 33 43 42 18 97 81 97 111 0 88 -130 31 -168 -74
-38 -103 -116 -210 -152 -210 -29 0 -35 34 -35 200 l0 155 -24 3 c-18 3 -37
-10 -76 -48 l-52 -52 -8 39 c-12 65 -38 80 -75 43z m529 -97 c-29 -31 -59 -48
-59 -34 0 18 74 85 78 72 2 -7 -6 -24 -19 -38z m654 -118 c-2 -52 -34 -135
-52 -135 -25 0 -12 112 20 184 18 40 34 15 32 -49z m-317 -242 c-18 -196 -63
-335 -123 -383 -33 -26 -79 -26 -93 -1 -37 70 32 237 169 409 23 28 44 52 48
52 3 0 3 -35 -1 -77z"/>
<path d="M1820 2895 l0 -65 51 0 c31 0 48 4 44 10 -3 6 -22 10 -41 10 -27 0
-34 4 -34 19 0 15 8 21 33 24 l32 4 -32 1 c-26 2 -33 6 -33 22 0 16 7 20 35
20 19 0 35 5 35 10 0 6 -20 10 -45 10 l-45 0 0 -65z"/>
<path d="M1982 2948 c-21 -21 -14 -47 16 -54 15 -4 33 -12 40 -17 22 -17 -13
-38 -44 -27 -15 6 -24 6 -24 0 0 -13 44 -23 69 -15 33 10 28 53 -6 61 -62 15
-65 44 -5 44 28 0 33 3 22 10 -21 13 -54 12 -68 -2z"/>
<path d="M2100 2950 c0 -5 11 -10 25 -10 22 0 24 -4 28 -57 l3 -58 2 58 c2 49
5 57 21 57 11 0 23 5 26 10 4 6 -15 10 -49 10 -31 0 -56 -4 -56 -10z"/>
<path d="M2260 2895 l0 -65 38 0 c53 0 82 23 82 65 0 42 -29 65 -82 65 l-38 0
0 -65z m89 36 c7 -5 14 -21 14 -36 0 -33 -17 -45 -60 -45 -32 0 -33 1 -33 45
0 44 1 45 33 45 17 0 38 -4 46 -9z"/>
<path d="M2693 2953 c-24 -9 -13 -20 16 -15 45 6 48 -15 7 -57 -20 -20 -36
-40 -36 -44 0 -4 20 -7 45 -7 25 0 45 5 45 10 0 6 -14 10 -32 10 l-32 0 27 28
c49 51 22 101 -40 75z"/>
<path d="M2839 2950 c-9 -5 -20 -21 -23 -34 -16 -63 48 -113 86 -66 45 55 -5
134 -63 100z m56 -55 c0 -36 -3 -40 -27 -43 -30 -4 -44 23 -34 64 5 20 12 25
34 22 24 -3 27 -7 27 -43z"/>
<path d="M2970 2950 c-17 -11 -9 -13 33 -10 39 2 35 -26 -10 -72 l-37 -38 53
0 c32 0 50 4 46 10 -3 6 -18 10 -32 10 l-27 0 27 28 c15 15 27 35 27 43 0 34
-46 51 -80 29z"/>
<path d="M3113 2953 c-24 -9 -13 -20 16 -15 45 6 48 -15 7 -57 -20 -20 -36
-40 -36 -44 0 -4 20 -7 45 -7 25 0 45 5 45 10 0 6 -15 10 -32 10 -33 1 -33 1
-12 18 12 10 26 27 33 39 18 35 -23 64 -66 46z"/>
<path d="M2513 2873 c9 -2 23 -2 30 0 6 3 -1 5 -18 5 -16 0 -22 -2 -12 -5z"/>
<path d="M3705 2665 c-4 -30 -10 -57 -14 -59 -4 -3 -27 11 -50 30 -40 31 -61
41 -61 29 0 -2 24 -23 54 -45 31 -24 59 -54 65 -71 5 -16 12 -29 14 -29 3 0 4
28 3 63 0 34 3 79 7 100 5 23 4 37 -2 37 -5 0 -13 -25 -16 -55z"/>
<path d="M1279 2677 c-45 -35 -52 -102 -13 -140 29 -30 81 -44 97 -28 8 8 3
11 -20 11 -76 0 -111 83 -57 137 20 20 31 24 57 19 17 -3 41 -16 54 -28 13
-12 23 -17 23 -10 0 38 -104 68 -141 39z"/>
<path d="M3443 2622 c-63 -21 -82 -36 -31 -27 l37 7 23 -76 c12 -42 26 -76 30
-76 11 0 10 7 -12 78 -25 78 -25 92 -2 92 9 0 24 5 32 10 24 15 -16 11 -77 -8z"/>
<path d="M1505 2585 c-29 -28 -34 -88 -10 -122 24 -34 76 -47 118 -29 41 17
57 41 57 86 0 77 -110 121 -165 65z m119 -6 c20 -16 26 -29 26 -59 0 -30 -6
-43 -26 -59 -37 -29 -70 -26 -106 9 -35 36 -33 71 8 108 31 28 64 28 98 1z"/>
<path d="M3210 2550 c-11 -11 -20 -26 -20 -33 0 -25 36 -47 77 -47 44 0 67
-18 57 -44 -7 -19 -44 -30 -79 -24 -14 3 -25 1 -25 -3 0 -17 48 -20 84 -5 30
12 36 20 36 45 0 36 -6 40 -71 48 -30 4 -53 12 -56 20 -8 21 20 45 64 53 l38
8 -42 1 c-31 1 -49 -5 -63 -19z"/>
<path d="M1787 2540 c-23 -84 -34 -162 -23 -165 37 -12 106 -21 106 -15 0 5
-17 11 -38 15 -61 10 -62 13 -46 84 15 64 16 135 1 81z"/>
<path d="M3016 2521 c-7 -11 -55 -170 -56 -183 0 -5 5 -8 10 -8 6 0 10 8 10
19 0 26 18 37 70 44 38 5 48 3 58 -13 7 -11 17 -20 22 -20 6 0 -13 35 -41 78
-63 94 -65 96 -73 83z m38 -62 c15 -22 26 -42 24 -44 -2 -2 -20 -6 -40 -10
-29 -6 -38 -4 -38 6 0 17 20 89 24 89 2 0 16 -18 30 -41z"/>
<path d="M1996 2512 c-2 -4 -6 -34 -10 -67 -4 -33 -9 -72 -12 -86 -5 -25 -2
-26 45 -32 28 -3 64 -1 81 5 30 10 60 52 60 83 0 30 -29 72 -57 83 -37 14
-102 22 -107 14z m121 -44 c51 -48 10 -128 -64 -128 -61 0 -64 6 -51 89 l11
73 41 -6 c22 -4 51 -17 63 -28z"/>
<path d="M2755 2490 c-42 -7 -39 -13 6 -10 24 1 27 -3 33 -46 3 -26 6 -64 6
-85 0 -22 5 -39 11 -39 8 0 9 25 4 85 -6 78 -5 85 12 85 10 0 25 5 33 10 18
11 -41 11 -105 0z"/>
<path d="M2407 2473 c-10 -10 -8 -48 3 -59 7 -7 2 -18 -15 -34 -29 -27 -31
-42 -9 -64 18 -18 89 -22 100 -5 4 8 9 8 17 0 16 -16 31 -13 18 3 -7 8 -9 26
-5 43 6 25 5 26 -8 10 -13 -17 -15 -17 -38 9 -17 18 -21 28 -12 31 22 8 35 43
21 59 -12 14 -60 19 -72 7z m60 -19 c3 -8 -2 -23 -11 -32 -16 -16 -18 -16 -31
1 -7 11 -11 25 -8 33 7 19 42 18 50 -2z m-6 -95 c18 -26 19 -33 8 -40 -21 -14
-60 -6 -73 13 -8 13 -6 22 8 37 25 28 31 27 57 -10z"/>
<path d="M1304 580 c-65 -26 -84 -117 -36 -170 29 -34 103 -53 116 -31 5 7 -7
11 -37 11 -58 0 -90 32 -90 90 0 58 32 90 90 90 60 0 96 -34 91 -88 -5 -58
-32 -49 -39 13 -3 28 -7 45 -7 38 -2 -8 -9 -8 -31 0 -25 9 -33 8 -50 -8 -12
-10 -21 -30 -21 -45 0 -15 9 -35 21 -45 16 -16 25 -17 47 -9 19 7 33 7 44 0
38 -24 66 61 38 115 -22 39 -88 59 -136 39z m76 -80 c16 -31 -4 -62 -38 -58
-28 3 -40 32 -28 64 8 21 54 17 66 -6z"/>
<path d="M1520 506 c0 -99 18 -117 22 -23 l3 62 29 -52 c16 -29 33 -50 38 -47
4 3 18 24 31 47 l22 42 3 -57 c5 -90 22 -68 22 27 0 47 -3 85 -7 85 -5 0 -23
-28 -42 -61 l-33 -61 -32 58 c-47 85 -56 81 -56 -20z"/>
<path d="M1780 505 l0 -85 55 0 c30 0 55 5 55 10 0 6 -20 10 -45 10 -43 0 -45
1 -45 30 0 28 2 30 40 30 22 0 40 5 40 10 0 6 -18 10 -40 10 -36 0 -40 3 -40
25 0 23 4 25 45 25 25 0 45 5 45 10 0 6 -25 10 -55 10 l-55 0 0 -85z"/>
<path d="M1993 580 c-42 -17 -57 -85 -28 -127 19 -27 75 -39 104 -24 22 12 31
71 11 71 -5 0 -10 -11 -10 -25 0 -14 -7 -28 -15 -31 -26 -10 -65 6 -77 31 -26
57 24 110 83 88 32 -13 40 0 10 17 -23 12 -48 12 -78 0z"/>
<path d="M2185 567 c-21 -17 -27 -32 -27 -62 0 -73 78 -110 136 -64 21 16 26
29 26 64 0 35 -5 48 -26 64 -35 27 -76 27 -109 -2z m93 -13 c34 -23 27 -83
-10 -104 -25 -13 -31 -13 -55 0 -38 21 -45 81 -11 104 12 9 29 16 38 16 9 0
26 -7 38 -16z"/>
<path d="M2370 581 c0 -5 12 -11 28 -13 26 -3 27 -5 30 -75 4 -96 22 -94 22 2
0 73 1 75 25 75 14 0 25 5 25 10 0 6 -28 10 -65 10 -36 0 -65 -4 -65 -9z"/>
<path d="M2640 505 l0 -85 54 0 c58 0 86 16 86 49 0 10 -7 24 -15 31 -11 9
-13 16 -5 24 16 16 12 44 -9 56 -11 5 -40 10 -65 10 l-46 0 0 -85z m105 40 c0
-16 -8 -21 -42 -23 -40 -3 -43 -2 -43 23 0 25 3 26 43 23 34 -2 42 -7 42 -23z
m5 -60 c22 -27 4 -45 -45 -45 -43 0 -45 1 -45 30 0 28 2 30 39 30 22 0 44 -6
51 -15z"/>
<path d="M2865 567 c-21 -17 -27 -32 -27 -62 0 -73 78 -110 136 -64 21 16 26
29 26 64 0 35 -5 48 -26 64 -35 27 -76 27 -109 -2z m93 -13 c34 -23 27 -83
-10 -104 -25 -13 -31 -13 -55 0 -38 21 -45 81 -11 104 12 9 29 16 38 16 9 0
26 -7 38 -16z"/>
<path d="M3070 505 l0 -85 54 0 c58 0 86 16 86 49 0 10 -7 24 -15 31 -11 9
-13 16 -5 24 16 16 12 44 -9 56 -11 5 -40 10 -65 10 l-46 0 0 -85z m105 40 c0
-16 -8 -21 -42 -23 -40 -3 -43 -2 -43 23 0 25 3 26 43 23 34 -2 42 -7 42 -23z
m5 -60 c22 -27 4 -45 -45 -45 -43 0 -45 1 -45 30 0 28 2 30 39 30 22 0 44 -6
51 -15z"/>
<path d="M3316 558 c-8 -18 -24 -55 -35 -81 -24 -56 -24 -57 -12 -57 5 0 13 9
16 20 5 16 15 20 55 20 40 0 50 -4 55 -20 5 -17 25 -29 25 -16 0 17 -69 161
-78 164 -7 2 -19 -11 -26 -30z m39 -28 c21 -41 19 -50 -15 -50 -16 0 -30 3
-30 7 0 9 23 73 27 73 1 0 9 -13 18 -30z"/>
<path d="M3477 579 c-9 -6 -15 -15 -11 -20 4 -6 11 -6 19 1 20 16 59 8 63 -13
2 -11 -15 -38 -42 -67 -25 -27 -46 -52 -46 -55 0 -3 27 -5 60 -5 33 0 60 4 60
10 0 6 -19 10 -41 10 l-41 0 36 40 c21 23 36 50 36 65 0 38 -52 58 -93 34z"/>
<path d="M3670 535 c-22 -30 -40 -59 -40 -65 0 -5 20 -10 45 -10 38 0 45 -3
45 -20 0 -11 5 -20 10 -20 6 0 10 9 10 20 0 11 7 20 15 20 8 0 15 5 15 10 0 6
-7 10 -15 10 -8 0 -15 9 -15 20 0 11 -4 20 -10 20 -5 0 -10 -9 -10 -20 0 -16
-7 -20 -30 -20 -16 0 -30 2 -30 5 0 3 16 27 36 55 20 27 31 50 25 50 -6 0 -29
-25 -51 -55z"/>
<path d="M2550 435 c0 -9 5 -15 11 -13 6 2 11 8 11 13 0 5 -5 11 -11 13 -6 2
-11 -4 -11 -13z"/>
</g>
</svg>
