<?xml version="1.0" standalone="no"?>
<!DOCTYPE svg PUBLIC "-//W3C//DTD SVG 20010904//EN"
 "http://www.w3.org/TR/2001/REC-SVG-20010904/DTD/svg10.dtd">
<svg version="1.0" xmlns="http://www.w3.org/2000/svg"
 width="2077.000000pt" height="1168.000000pt" viewBox="0 0 2077.000000 1168.000000"
 preserveAspectRatio="xMidYMid meet">

<g transform="translate(0.000000,1168.000000) scale(0.100000,-0.100000)"
fill="#000000" stroke="none">
<path d="M18070 10225 c-250 -37 -493 -134 -697 -278 -115 -81 -301 -268 -385
-387 -119 -167 -214 -382 -257 -581 -37 -171 -42 -325 -39 -1154 l3 -790 125
-3 125 -2 180 180 180 180 -128 0 -127 0 0 669 c0 746 4 796 71 986 126 358
410 645 757 766 189 66 134 63 940 66 l733 4 -4 -698 c-3 -665 -5 -702 -25
-791 -29 -131 -57 -208 -111 -315 -124 -244 -311 -430 -554 -552 -223 -113
-348 -135 -757 -135 l-295 0 -173 -173 c-94 -95 -172 -176 -172 -180 0 -10
868 -8 981 3 398 39 740 205 1020 498 204 212 340 471 411 779 22 97 22 109
25 1011 l4 912 -873 -1 c-651 -1 -895 -4 -958 -14z"/>
<path d="M18168 9519 c-181 -26 -340 -105 -481 -239 -115 -108 -188 -224 -243
-390 l-29 -85 -3 -527 -3 -528 128 0 128 0 380 380 380 380 -128 127 -127 128
-205 -205 -205 -205 0 152 c0 173 16 276 56 357 60 123 171 226 301 277 56 23
69 24 386 27 l327 3 0 -309 c0 -461 14 -430 -378 -824 l-286 -288 126 0 c100
0 145 5 222 24 316 81 559 321 648 641 22 77 22 98 26 598 l3 517 -483 -1
c-266 -1 -509 -5 -540 -10z"/>
<path d="M1419 7250 c-619 -60 -961 -432 -875 -950 29 -173 88 -291 209 -417
115 -120 184 -168 601 -423 204 -124 405 -249 447 -277 302 -204 401 -352 386
-581 -12 -195 -141 -336 -359 -391 -222 -57 -528 -24 -723 77 -94 48 -216 170
-278 276 -69 118 -131 306 -162 489 l-6 37 -64 0 c-55 0 -65 -3 -65 -17 0 -10
0 -153 0 -318 1 -294 1 -300 25 -352 66 -145 232 -266 478 -348 184 -61 319
-80 582 -79 248 0 336 11 510 60 327 93 553 301 631 579 10 37 18 114 21 201
5 123 2 151 -16 219 -44 158 -134 288 -285 413 -122 100 -232 171 -641 412
-387 228 -498 300 -586 379 -105 94 -159 211 -159 344 1 136 35 223 121 308
107 106 235 149 444 149 289 0 513 -101 649 -293 91 -129 164 -311 204 -509
l19 -93 67 -3 67 -3 -3 323 -3 323 -29 54 c-83 160 -313 303 -585 367 -179 41
-453 61 -622 44z"/>
<path d="M7850 7102 l0 -69 81 -6 c150 -10 219 -63 263 -205 20 -66 21 -79 24
-1419 l3 -1353 310 0 310 0 -4 1373 c-3 1273 -4 1377 -21 1447 -27 114 -53
165 -108 215 -84 76 -102 79 -505 83 l-353 3 0 -69z"/>
<path d="M10400 7100 l0 -70 58 0 c126 0 223 -52 261 -141 50 -116 50 -111 51
-1521 l0 -1318 315 0 315 0 0 715 0 716 92 -3 93 -3 197 -330 c313 -523 348
-580 432 -692 294 -392 600 -517 1029 -422 l47 11 0 61 0 62 -58 17 c-31 10
-86 34 -122 55 -77 45 -217 181 -286 277 -49 69 -615 999 -610 1003 1 1 41 14
87 27 368 107 608 323 663 598 31 150 15 351 -39 494 -49 131 -146 245 -268
317 -148 88 -400 165 -647 198 -131 17 -214 19 -877 19 l-733 0 0 -70z m1464
-140 c169 -43 314 -154 379 -291 47 -98 67 -201 67 -344 0 -333 -123 -523
-407 -627 -51 -19 -85 -22 -280 -26 l-223 -4 0 641 0 641 23 4 c158 32 332 34
441 6z"/>
<path d="M4035 6301 c-56 -10 -125 -26 -155 -36 -298 -97 -557 -344 -667 -636
-123 -326 -105 -747 45 -1044 64 -129 195 -281 323 -375 309 -230 794 -275
1179 -111 246 105 440 308 547 571 63 155 83 256 90 441 9 240 -29 424 -127
620 -159 318 -440 520 -800 575 -126 19 -311 17 -435 -5z m300 -202 c166 -30
286 -163 358 -395 100 -320 96 -821 -9 -1116 -111 -310 -317 -436 -563 -346
-37 14 -72 39 -116 82 -151 148 -235 448 -235 840 0 532 158 884 420 935 63
12 79 12 145 0z"/>
<path d="M6430 6309 c-201 -20 -356 -74 -429 -149 -71 -74 -99 -145 -117 -306
-10 -78 -14 -149 -11 -158 6 -14 24 -16 133 -14 l126 3 30 90 c49 150 105 228
197 274 143 72 316 76 448 11 151 -74 234 -269 250 -585 l6 -125 -154 0 c-370
0 -681 -55 -884 -155 -140 -68 -231 -170 -282 -316 -35 -99 -44 -290 -19 -389
76 -299 323 -467 716 -487 153 -7 265 7 370 48 83 32 194 110 242 170 17 22
37 39 43 39 7 0 49 -47 95 -105 l83 -105 199 0 199 0 -4 758 c-3 729 -4 760
-24 843 -61 248 -184 428 -367 538 -79 47 -233 98 -352 116 -107 16 -351 18
-494 4z m630 -1471 l0 -303 -32 -55 c-40 -71 -150 -180 -214 -211 -42 -20 -63
-24 -149 -24 -117 0 -155 15 -222 87 -56 61 -84 141 -90 259 -21 369 173 541
620 548 l87 1 0 -302z"/>
<path d="M14100 6309 c-312 -32 -457 -114 -518 -293 -21 -59 -42 -211 -42
-296 l0 -41 131 3 131 3 22 75 c30 103 81 193 137 244 114 103 343 132 500 65
101 -44 192 -175 229 -332 20 -82 46 -347 37 -371 -4 -10 -59 -14 -229 -19
-273 -8 -461 -32 -635 -83 -328 -95 -485 -293 -486 -614 -1 -185 49 -316 168
-435 112 -113 270 -181 475 -206 115 -14 302 -6 385 16 113 31 236 108 314
198 18 20 38 37 45 36 6 0 48 -47 94 -105 l83 -104 199 0 200 0 0 685 c0 703
-5 812 -40 951 -44 170 -103 277 -215 389 -171 171 -403 247 -750 244 -82 -1
-188 -6 -235 -10z m630 -1466 l0 -298 -33 -58 c-43 -77 -148 -181 -217 -215
-48 -24 -67 -27 -150 -27 -82 0 -102 4 -144 25 -61 31 -110 87 -137 159 -27
71 -37 251 -19 344 47 242 242 359 613 365 l87 2 0 -297z"/>
<path d="M16435 6305 c-258 -42 -474 -157 -574 -306 -107 -160 -119 -385 -30
-562 39 -76 154 -194 255 -259 87 -57 251 -139 413 -208 458 -193 565 -284
548 -466 -16 -168 -130 -257 -366 -285 -218 -26 -409 28 -529 149 -76 77 -126
165 -165 290 l-32 103 -80 -3 -80 -3 3 -120 c9 -333 49 -423 230 -518 82 -43
166 -69 297 -93 138 -25 518 -26 651 -1 307 56 523 187 609 368 97 205 59 461
-90 619 -92 96 -273 205 -495 298 -52 22 -151 64 -220 93 -242 101 -375 197
-401 290 -19 69 -14 168 11 228 69 159 290 225 558 165 208 -46 362 -219 422
-472 l12 -53 82 3 81 3 -3 140 c-7 263 -29 343 -115 421 -90 81 -224 136 -412
170 -127 23 -462 28 -580 9z"/>
<path d="M18660 6309 c-199 -20 -356 -74 -427 -147 -82 -84 -112 -177 -129
-390 l-7 -93 133 3 133 3 27 85 c14 47 36 104 49 128 69 133 207 205 396 206
287 1 427 -194 451 -623 l7 -128 -229 -6 c-659 -17 -980 -155 -1091 -468 -32
-90 -43 -271 -23 -372 59 -300 323 -485 720 -504 269 -13 445 46 591 198 31
33 61 59 65 59 5 0 46 -47 92 -105 l84 -105 199 0 199 0 0 708 c0 754 -4 819
-51 977 -96 319 -336 516 -696 570 -106 16 -351 18 -493 4z m630 -1471 l0
-303 -30 -52 c-40 -70 -155 -184 -216 -213 -41 -20 -65 -24 -149 -25 -85 0
-106 3 -141 22 -118 63 -174 184 -174 372 1 339 195 493 628 500 l82 1 0 -302z"/>
</g>
</svg>
